<?xml version="1.0" encoding="utf-8"?>
<!-- Generator: Adobe Illustrator 23.0.2, SVG Export Plug-In . SVG Version: 6.00 Build 0)  -->
<svg version="1.1" id="Layer_1" xmlns="http://www.w3.org/2000/svg" xmlns:xlink="http://www.w3.org/1999/xlink" x="0px" y="0px"
	 viewBox="0 0 1080 1080" style="enable-background:new 0 0 1080 1080;" xml:space="preserve">
<style type="text/css">
	.st0{stroke:#000000;stroke-miterlimit:10;}
	.st1{fill:#00AAFF;stroke:#000000;stroke-miterlimit:10;}
</style>
<g>
	<path class="st0" d="M36.49,602.22v140.63c0,0,182.64,155.24,401.8,155.24s569.83-177.16,588.09-189.94
		c18.26-12.78,31.05-49.31-10.96-71.23c-42.01-21.92-404.3,148.93-513.88,139.8c104.1-43.83,113.9-35.69,159.56-63.09
		c45.66-27.4,36.53-107.76-38.35-89.49c-74.88,18.26-135.15,69.4-197.25,51.14C363.41,657.01,295.83,527.33,36.49,602.22z"/>
	<circle class="st1" cx="540" cy="546.95" r="78.3"/>
	<path class="st0" d="M1036.51,494.14V353.51c0,0-182.64-155.24-401.8-155.24S64.88,375.43,46.62,388.21s-31.05,49.31,10.96,71.23
		c42.01,21.92,404.3-148.93,513.88-139.8c-104.1,43.83-113.9,35.69-159.56,63.09c-45.66,27.4-36.53,107.76,38.35,89.49
		c74.88-18.26,135.15-69.4,197.25-51.14S777.17,569.02,1036.51,494.14z"/>
</g>
</svg>
